# xmcd
#
# Track frame offsets:
#	150
#	12870
#	32440
#	53177
#	71740
#	90042
#	109377
#	127640
#	142820
#	160257
#
# Disc length: 2835 seconds
#
# Revision: 1
# Processed by: cddbd v1.5.1PL2 Copyright (c) Steve Scherf et al.
# Submitted via: EasyCDDAExtractor 6.2.0.3
#
DISCID=700b110a
DTITLE=Hellhounds - Halfway Between Somewhere And Nowhere
DYEAR=2005
DGENRE=Blues
TTITLE0=Downtown
TTITLE1=On The Run
TTITLE2=2 Inch Ball Hitch
TTITLE3=Smoke That Stuff
TTITLE4=Rising Tide
TTITLE5=Blackened Tuna
TTITLE6=Everything
TTITLE7=Gwendolyn Brown
TTITLE8=Devil Woman
TTITLE9=Deltaville
EXTD=
EXTT0=
EXTT1=
EXTT2=
EXTT3=
EXTT4=
EXTT5=
EXTT6=
EXTT7=
EXTT8=
EXTT9=
PLAYORDER=
